<?xml version="1.0" encoding="utf-8"?>
<!-- Svg Vector Icons : http://www.onlinewebfonts.com/icon -->
<!DOCTYPE svg PUBLIC "-//W3C//DTD SVG 1.1//EN" "http://www.w3.org/Graphics/SVG/1.1/DTD/svg11.dtd">
<svg version="1.1" xmlns="http://www.w3.org/2000/svg" xmlns:xlink="http://www.w3.org/1999/xlink" x="0px" y="0px" viewBox="0 0 1000 1000" enable-background="new 0 0 1000 1000" xml:space="preserve">
<metadata> Svg Vector Icons : http://www.onlinewebfonts.com/icon </metadata>
<g><path d="M722.7,232.7H277.3c-24.6,0-44.5,19.9-44.5,44.5s19.9,44.5,44.5,44.5h445.5c24.6,0,44.5-19.9,44.5-44.5S747.3,232.7,722.7,232.7L722.7,232.7z M722.7,410.9H277.3c-24.6,0-44.5,19.9-44.5,44.5c0,24.6,19.9,44.5,44.5,44.5h445.5c24.6,0,44.5-19.9,44.5-44.5C767.3,430.9,747.3,410.9,722.7,410.9L722.7,410.9z M900.9,10H99.1C49.9,10,10,49.9,10,99.1v801.8c0,49.2,39.9,89.1,89.1,89.1l490-0.1c11.8,0.1,23.7-4.3,32.7-13.4l354.8-354.8c9-9,13.5-20.9,13.3-32.7h0.1v-490C990,49.9,950.1,10,900.9,10L900.9,10z M633.6,835.7V678.2c0-24.6,19.9-44.5,44.5-44.5h157.5L633.6,835.7L633.6,835.7z M900.9,544.5H633.6c-49.2,0-89.1,39.9-89.1,89.1v267.3H143.6c-24.6,0-44.5-19.9-44.5-44.5V143.6c0-24.6,19.9-44.5,44.5-44.5h712.7c24.6,0,44.5,19.9,44.5,44.5V544.5L900.9,544.5z M366.4,589.1h-89.1c-24.6,0-44.5,19.9-44.5,44.5c0,24.6,19.9,44.5,44.5,44.5h89.1c24.6,0,44.5-19.9,44.5-44.5C410.9,609,391,589.1,366.4,589.1z"/></g>
</svg>